<?xml version="1.0" encoding="iso-8859-1"?>
<!-- Generator: Adobe Illustrator 19.0.0, SVG Export Plug-In . SVG Version: 6.00 Build 0)  -->
<svg version="1.1" id="Capa_1" xmlns="http://www.w3.org/2000/svg" xmlns:xlink="http://www.w3.org/1999/xlink" x="0px" y="0px"
	 viewBox="0 0 582.298 582.298" style="enable-background:new 0 0 582.298 582.298;" xml:space="preserve">
<path style="fill:#F76363;" d="M512,304.603c0-40.847-31.38-74.327-71.342-77.763c-7.767-34.938-38.903-61.084-76.184-61.084
	c-6.994,0-13.737,1.007-20.185,2.734c-13.729-22.433-38.374-37.445-66.595-37.445c-37.419,0-68.651,26.329-76.279,61.449
	c-15.794-16.453-37.957-26.737-62.568-26.737c-47.764,0-86.502,38.6-86.754,86.302C26.39,264.84,8.678,291.299,8.678,321.959
	c0,41.524,32.43,75.377,73.32,77.859c10.986,35.337,43.937,60.989,82.883,60.989c18.328,0,35.293-5.71,49.3-15.403
	c11.871,16.592,30.052,28.299,51.052,31.675c12.21,35.935,46.158,61.831,86.224,61.831c32.881,0,61.605-17.477,77.633-43.581
	c41.324-2.031,74.231-36.083,74.231-77.911c0-20.116-7.671-38.391-20.159-52.233C500.753,350.856,512,329.049,512,304.603z"/>
<g>
	<path style="fill:#D5354E;" d="M312.407,426.094c-38.279,0-69.424-31.145-69.424-69.424s31.145-69.424,69.424-69.424
		c4.79,0,8.678,3.888,8.678,8.678c0,4.79-3.888,8.678-8.678,8.678c-28.707,0-52.068,23.352-52.068,52.068
		s23.361,52.068,52.068,52.068c4.79,0,8.678,3.888,8.678,8.678S317.197,426.094,312.407,426.094z"/>
	<path style="fill:#D5354E;" d="M209.148,338.881c-2.222,0-4.443-0.85-6.135-2.543c-13.112-13.112-20.332-30.546-20.332-49.091
		s7.22-35.979,20.332-49.091c17.842-17.851,44.015-24.611,68.287-17.642c4.608,1.319,7.272,6.135,5.944,10.735
		c-1.319,4.608-6.118,7.272-10.735,5.953c-18.215-5.259-37.845-0.174-51.226,13.225c-9.832,9.832-15.247,22.91-15.247,36.821
		s5.415,26.98,15.247,36.821c3.393,3.393,3.393,8.878,0,12.271C213.591,338.03,211.361,338.881,209.148,338.881z"/>
	<path style="fill:#D5354E;" d="M416.542,452.128c-18.545,0-35.979-7.22-49.091-20.332c-13.112-13.112-20.332-30.546-20.332-49.091
		s7.22-35.979,20.332-49.091c3.393-3.393,8.886-3.393,12.271,0c3.393,3.393,3.393,8.878,0,12.271
		c-9.832,9.841-15.247,22.91-15.247,36.821s5.415,26.98,15.247,36.821c9.841,9.832,22.91,15.247,36.821,15.247
		c13.911,0,26.98-5.415,36.821-15.247c3.384-3.393,8.878-3.393,12.271,0c3.393,3.393,3.393,8.878,0,12.271
		C452.521,444.908,435.087,452.128,416.542,452.128z"/>
	<path style="fill:#D5354E;" d="M449.093,346.743c-0.755,0-1.527-0.104-2.3-0.312c-4.625-1.267-7.342-6.04-6.075-10.665
		c4.938-18.033-0.191-37.428-13.399-50.627c-9.832-9.832-22.901-15.247-36.812-15.247s-26.98,5.415-36.821,15.247
		c-3.384,3.393-8.878,3.393-12.271,0c-3.393-3.393-3.393-8.878,0-12.271c13.112-13.112,30.546-20.332,49.091-20.332
		s35.979,7.22,49.091,20.332c17.599,17.599,24.446,43.459,17.859,67.489C456.409,344.209,452.912,346.743,449.093,346.743z"/>
	<path style="fill:#D5354E;" d="M393.867,235.526c-2.222,0-4.443-0.85-6.135-2.543c-9.832-9.832-22.91-15.247-36.821-15.247
		c-13.911,0-26.98,5.415-36.821,15.247c-3.384,3.393-8.878,3.393-12.271,0c-3.393-3.393-3.393-8.878,0-12.271
		c13.112-13.112,30.546-20.332,49.091-20.332s35.979,7.22,49.091,20.332c3.393,3.393,3.393,8.878,0,12.271
		C398.301,234.676,396.088,235.526,393.867,235.526z"/>
	<path style="fill:#D5354E;" d="M164.005,408.738c-2.222,0-4.443-0.85-6.135-2.543c-3.393-3.393-3.393-8.878,0-12.271
		c9.832-9.832,15.247-22.91,15.247-36.821s-5.415-26.98-15.247-36.821c-9.832-9.832-22.91-15.247-36.821-15.247
		s-26.98,5.415-36.821,15.247c-3.384,3.393-8.878,3.393-12.271,0c-3.393-3.393-3.393-8.878,0-12.271
		c13.112-13.112,30.546-20.332,49.091-20.332s35.979,7.22,49.091,20.332c13.112,13.112,20.332,30.546,20.332,49.091
		c0,18.545-7.22,35.979-20.332,49.091C168.448,407.888,166.226,408.738,164.005,408.738z"/>
	<path style="fill:#D5354E;" d="M52.12,260.727c-2.924,0-5.788-1.475-7.42-4.157c-2.491-4.079-1.224-9.398,2.846-11.897
		c0.911-0.564,22.537-13.642,49.282-9.39c4.729,0.755,7.958,5.207,7.203,9.936s-5.207,7.949-9.936,7.211
		c-20.22-3.228-37.315,6.934-37.48,7.038C55.201,260.319,53.647,260.727,52.12,260.727z"/>
	<path style="fill:#D5354E;" d="M214.19,454.081c-2.317,0-4.634-0.92-6.335-2.751c-3.272-3.497-3.089-8.99,0.408-12.271
		c7.185-6.725,19.178-20.61,20.775-29.193c0.876-4.712,5.406-7.836,10.119-6.951c4.712,0.876,7.828,5.406,6.951,10.119
		c-3.141,16.965-23.656,36.534-25.991,38.712C218.433,453.3,216.307,454.081,214.19,454.081z"/>
</g>
<g>
	<path style="fill:#EBBA16;" d="M52.068,521.552c-4.79,0-8.678-3.888-8.678-8.678V486.84c0-4.79,3.888-8.678,8.678-8.678
		s8.678,3.888,8.678,8.678v26.034C60.746,517.664,56.858,521.552,52.068,521.552z"/>
	<path style="fill:#EBBA16;" d="M95.458,538.908H69.424c-4.79,0-8.678-3.888-8.678-8.678s3.888-8.678,8.678-8.678h26.034
		c4.79,0,8.678,3.888,8.678,8.678S100.248,538.908,95.458,538.908z"/>
	<path style="fill:#EBBA16;" d="M52.068,582.298c-4.79,0-8.678-3.888-8.678-8.678v-26.034c0-4.79,3.888-8.678,8.678-8.678
		s8.678,3.888,8.678,8.678v26.034C60.746,578.41,56.858,582.298,52.068,582.298z"/>
	<path style="fill:#EBBA16;" d="M34.712,538.908H8.678c-4.79,0-8.678-3.888-8.678-8.678s3.888-8.678,8.678-8.678h26.034
		c4.79,0,8.678,3.888,8.678,8.678S39.502,538.908,34.712,538.908z"/>
	
		<ellipse transform="matrix(-0.7071 -0.7071 0.7071 -0.7071 719.5763 525.435)" style="fill:#EBBA16;" cx="468.609" cy="113.688" rx="157.677" ry="31.275"/>
</g>
<rect x="33.663" y="511.817" transform="matrix(-0.7071 0.7071 -0.7071 -0.7071 463.8216 868.3334)" style="fill:#ED8A19;" width="36.82" height="36.82"/>
<g>
</g>
<g>
</g>
<g>
</g>
<g>
</g>
<g>
</g>
<g>
</g>
<g>
</g>
<g>
</g>
<g>
</g>
<g>
</g>
<g>
</g>
<g>
</g>
<g>
</g>
<g>
</g>
<g>
</g>
</svg>
